<?xml version="1.0" standalone="no"?>
<!DOCTYPE svg PUBLIC "-//W3C//DTD SVG 20010904//EN"
 "http://www.w3.org/TR/2001/REC-SVG-20010904/DTD/svg10.dtd">
<svg version="1.0" xmlns="http://www.w3.org/2000/svg"
 width="1280.000000pt" height="1280.000000pt" viewBox="0 0 1280.000000 1280.000000"
 preserveAspectRatio="xMidYMid meet">

<g transform="translate(0.000000,1280.000000) scale(0.100000,-0.100000)"
fill="#000000" stroke="none">
<path d="M3409 10915 c-210 -43 -354 -140 -473 -320 -51 -77 -88 -179 -105
-295 -17 -108 -11 -5902 6 -5945 6 -16 19 -57 29 -90 10 -33 23 -69 30 -80 7
-11 21 -37 32 -58 25 -48 128 -157 189 -200 26 -19 76 -49 110 -67 123 -63 92
-61 1023 -54 465 4 881 7 925 6 44 0 985 -3 2090 -6 1106 -4 2045 -7 2088 -7
84 0 154 20 227 66 22 14 42 25 46 25 3 0 29 17 58 37 110 80 214 230 247 356
40 157 40 93 42 3062 2 2651 1 2847 -15 2952 -26 166 -53 234 -137 346 -76
101 -143 155 -262 211 -170 80 97 74 -3164 74 -2420 1 -2931 -1 -2986 -13z
m5975 -210 c172 -43 314 -182 367 -358 15 -49 11 -5928 -3 -5987 -36 -142
-163 -279 -318 -343 l-55 -22 -2945 -3 c-2091 -2 -2960 1 -2998 9 -132 27
-267 128 -334 249 -73 132 -67 -145 -70 3100 -3 2865 -2 2926 17 2985 47 148
130 255 251 325 107 62 -105 58 3098 59 2600 1 2935 -1 2990 -14z"/>
<path d="M6230 10184 c-84 -11 -284 -46 -304 -54 -11 -5 -68 -23 -126 -41
-167 -51 -387 -149 -441 -195 -8 -8 -18 -14 -22 -14 -10 0 -210 -142 -238
-169 -15 -14 -41 -37 -59 -51 -39 -30 -225 -220 -254 -259 -12 -15 -30 -40
-41 -56 -11 -15 -31 -42 -45 -59 -14 -18 -34 -49 -44 -68 -11 -20 -40 -49 -65
-65 -24 -15 -49 -32 -55 -38 -16 -15 -127 -98 -147 -110 -75 -46 -313 -301
-373 -399 -10 -17 -32 -48 -48 -68 -66 -84 -192 -341 -246 -503 -49 -144 -89
-338 -104 -495 -9 -104 -6 -378 6 -440 2 -14 7 -47 11 -75 7 -55 38 -197 56
-260 48 -165 161 -419 228 -513 11 -17 21 -34 21 -39 0 -5 16 -28 35 -50 19
-23 35 -46 35 -53 0 -29 309 -369 337 -370 4 0 29 -20 54 -43 68 -62 85 -75
158 -122 75 -48 85 -59 129 -132 17 -29 40 -61 49 -71 10 -11 38 -45 63 -77
87 -111 265 -279 386 -365 154 -109 370 -224 539 -285 153 -56 173 -61 275
-78 317 -52 506 -58 735 -23 17 2 57 7 90 11 91 9 259 54 347 94 24 10 79 33
123 51 100 40 326 163 370 201 18 16 38 29 44 29 6 0 11 5 11 10 0 6 5 10 11
10 19 0 97 68 229 200 129 129 179 189 269 323 29 42 56 77 60 77 11 0 99 59
181 122 80 60 129 104 171 154 15 17 35 38 46 45 51 38 323 406 323 438 0 7 8
25 18 39 52 77 173 385 187 479 3 15 9 53 15 83 35 200 41 266 42 452 0 188
-17 370 -43 454 -5 17 -9 41 -9 54 0 41 -90 290 -152 420 -95 198 -254 426
-404 575 -96 95 -213 195 -284 240 -87 56 -119 87 -164 153 -63 95 -217 273
-314 362 -103 95 -137 122 -231 187 -42 29 -81 57 -87 62 -10 8 -128 73 -204
111 -72 36 -180 81 -202 84 -13 2 -34 8 -48 14 -35 15 -179 59 -215 66 -16 3
-68 12 -115 21 -83 15 -490 29 -570 19z m512 -214 c24 -5 95 -21 158 -35 158
-36 258 -73 425 -156 93 -47 92 -46 210 -123 49 -32 106 -73 126 -92 19 -19
38 -31 42 -28 4 4 7 1 7 -7 0 -8 14 -23 30 -34 32 -21 106 -105 93 -105 -4 1
-33 7 -63 15 -231 59 -295 70 -485 86 -114 10 -173 10 -274 1 -164 -16 -402
-61 -511 -97 -44 -15 -51 -14 -131 9 -113 33 -327 72 -473 87 -94 10 -154 10
-279 1 -172 -13 -173 -14 -391 -66 -82 -20 -151 -34 -154 -32 -10 11 81 104
173 174 174 135 292 203 477 277 62 25 120 49 128 54 8 4 38 13 65 19 104 24
191 42 223 46 19 3 36 7 40 10 9 10 519 7 564 -4z m678 -701 c169 -27 171 -27
200 -38 14 -5 45 -14 70 -21 25 -7 54 -16 65 -20 41 -16 116 -42 128 -44 14
-3 111 -51 187 -93 53 -30 57 -35 121 -162 36 -72 66 -136 67 -143 0 -7 19
-71 42 -143 23 -71 43 -139 44 -150 33 -204 38 -269 32 -460 -6 -222 -9 -261
-19 -271 -4 -4 -7 -16 -7 -26 0 -34 -18 -18 -66 60 -26 42 -52 79 -56 80 -4 2
-8 9 -8 15 0 13 -75 109 -163 212 -126 147 -223 232 -445 392 -37 26 -102 102
-102 119 0 3 -7 12 -15 21 -9 8 -33 41 -55 72 -40 59 -295 321 -340 350 -14 8
-47 34 -75 56 -46 38 -112 83 -160 110 -11 6 -37 22 -58 35 l-39 23 31 13 c17
7 73 16 123 20 51 3 120 10 153 14 80 9 194 3 345 -21z m-1502 10 c80 -6 161
-17 180 -23 l34 -12 -54 -34 c-29 -19 -57 -37 -63 -39 -18 -7 -149 -98 -174
-120 -13 -11 -27 -21 -32 -21 -4 0 -70 -62 -147 -137 -140 -139 -225 -238
-296 -348 -21 -33 -53 -70 -70 -83 -248 -178 -378 -294 -503 -451 -99 -126
-136 -177 -162 -223 -31 -57 -73 -119 -78 -115 -13 14 -34 259 -34 403 0 250
33 433 116 654 15 40 22 63 22 70 0 7 104 202 115 217 13 16 97 63 113 63 8 0
15 3 17 8 6 13 112 60 198 87 47 15 94 31 105 35 55 22 219 60 285 66 41 3 77
8 79 10 8 8 206 4 349 -7z m728 -209 c88 -45 167 -90 177 -101 10 -10 21 -19
25 -19 4 0 18 -10 32 -23 14 -12 36 -29 50 -38 50 -32 214 -188 206 -196 -1
-2 -36 6 -77 17 -251 69 -346 80 -659 75 -251 -3 -265 -4 -440 -45 -19 -4 -69
-17 -110 -29 -41 -11 -79 -21 -83 -21 -7 0 12 27 52 75 17 20 61 55 70 55 5 0
11 4 13 8 10 24 307 235 311 222 1 -3 19 6 41 19 63 40 189 91 212 87 12 -3
93 -41 180 -86z m1939 -422 c28 -34 66 -80 85 -102 20 -23 45 -54 55 -70 139
-205 245 -430 294 -628 102 -411 76 -833 -74 -1213 -59 -149 -193 -383 -266
-465 -17 -19 -44 -54 -60 -77 -26 -37 -129 -136 -136 -130 -1 2 7 36 18 77 11
41 24 96 29 122 5 27 11 51 14 56 2 4 7 29 10 56 3 26 11 65 17 85 17 58 6
556 -15 656 -10 44 -20 98 -23 120 -3 22 -9 48 -14 57 -5 9 -9 27 -9 40 0 13
-6 34 -13 48 -19 38 -20 84 -3 134 16 46 21 67 37 146 4 25 16 81 26 125 14
66 17 132 17 365 0 169 -5 305 -11 335 -18 80 -23 108 -29 145 -3 19 -8 42
-11 50 -3 8 -8 24 -10 35 -4 21 -20 87 -30 119 -5 17 -3 16 23 -3 16 -12 52
-49 79 -83z m-4205 -55 c-58 -217 -74 -365 -67 -608 7 -227 28 -361 88 -558
l21 -69 -25 -91 c-29 -101 -50 -197 -67 -297 -12 -76 -29 -303 -24 -340 1 -14
5 -72 9 -130 6 -117 26 -247 50 -330 44 -149 57 -202 52 -207 -6 -5 -81 70
-132 131 -22 27 -50 60 -63 75 -21 24 -33 41 -88 125 -53 81 -69 110 -120 216
-30 63 -61 129 -69 145 -15 33 -56 173 -75 250 -6 28 -15 66 -20 85 -12 50
-29 197 -36 320 -6 101 11 269 46 448 15 83 69 258 97 320 60 133 137 280 169
323 19 26 34 50 34 53 0 3 21 32 46 64 26 31 61 75 78 97 39 49 115 125 126
125 5 0 -9 -66 -30 -147z m2210 -8 c203 -15 423 -66 585 -135 166 -71 265
-126 265 -147 0 -6 7 -19 16 -27 8 -9 13 -16 9 -16 -3 0 1 -12 9 -27 86 -156
158 -383 192 -603 18 -117 21 -414 4 -530 -13 -94 -42 -223 -70 -315 -62 -202
-179 -432 -221 -435 -4 0 -58 -24 -120 -54 -145 -69 -333 -127 -509 -156 -107
-18 -396 -24 -506 -11 -148 18 -275 46 -411 90 -130 42 -314 128 -350 164 -49
49 -175 333 -205 462 -17 72 -29 129 -37 175 -5 25 -14 72 -21 104 -16 83 -7
436 14 536 9 41 19 93 22 115 3 22 12 58 21 80 8 22 14 40 13 40 -4 0 21 89
30 113 6 12 14 32 19 45 23 54 122 254 134 269 12 16 111 69 192 103 88 38
101 43 140 56 22 7 45 17 51 21 11 8 137 38 244 59 25 5 98 13 163 18 65 5
121 12 124 14 5 6 39 5 203 -8z m-1486 -582 c-7 -27 -18 -64 -23 -83 -26 -86
-62 -307 -70 -440 -15 -234 16 -520 80 -728 10 -35 17 -68 14 -72 -3 -5 1 -11
7 -13 7 -3 8 -6 3 -6 -6 -1 -43 34 -82 77 -159 171 -223 265 -328 478 -58 117
-62 135 -44 181 40 100 163 327 196 361 7 8 27 35 45 60 33 49 91 115 168 189
25 23 45 43 46 43 1 0 -5 -21 -12 -47z m2784 -54 c29 -31 62 -69 74 -85 13
-16 26 -30 30 -32 5 -2 8 -8 8 -13 0 -7 46 -76 97 -145 9 -11 38 -64 87 -159
55 -107 69 -145 62 -177 -7 -34 -76 -178 -121 -253 -16 -27 -37 -62 -45 -77
-38 -70 -163 -231 -225 -290 -66 -64 -74 -65 -59 -10 34 124 43 164 58 247 35
197 44 442 21 600 -2 17 -6 64 -9 107 -6 84 -19 150 -46 248 -10 36 -21 80
-25 99 l-7 34 24 -19 c14 -11 48 -44 76 -75z m-3288 -972 c0 -5 11 -23 25 -41
14 -18 25 -36 25 -40 0 -7 69 -108 80 -116 3 -3 17 -21 30 -40 41 -59 138
-169 144 -163 3 4 6 1 6 -6 0 -14 63 -79 129 -131 24 -19 57 -46 72 -60 16
-14 52 -41 80 -60 102 -70 148 -111 183 -163 71 -102 112 -155 171 -222 62
-70 179 -187 216 -214 12 -9 35 -28 53 -42 47 -38 193 -140 258 -179 32 -19
55 -37 50 -41 -29 -28 -406 -48 -558 -30 -205 25 -347 55 -431 92 -24 11 -47
19 -51 19 -13 0 -182 75 -237 105 -67 37 -77 48 -124 136 -37 70 -54 113 -113
284 -11 33 -25 66 -31 73 -5 6 -7 12 -4 12 3 0 1 17 -5 38 -38 154 -40 172
-43 417 -3 196 0 270 12 343 l16 93 23 -28 c13 -15 23 -32 24 -36z m3761 -9
c15 -66 20 -517 7 -588 -39 -218 -107 -429 -191 -593 -58 -114 -75 -128 -247
-201 -189 -79 -286 -111 -405 -131 -223 -37 -411 -44 -607 -20 -145 17 -158
23 -115 51 125 81 182 120 185 127 2 4 8 7 14 7 5 0 31 17 56 38 26 20 55 44
66 52 35 26 199 192 257 260 63 73 179 234 179 247 0 8 21 24 72 53 15 8 57
38 94 65 37 28 75 55 84 60 33 20 241 239 318 335 42 52 106 141 142 198 36
56 68 102 71 102 4 0 13 -28 20 -62z m-2526 -965 c17 -3 35 -9 40 -13 12 -9
60 -19 190 -41 260 -43 499 -44 765 -4 25 4 98 20 163 36 65 16 123 26 129 23
15 -9 -97 -111 -222 -203 -114 -84 -288 -186 -388 -226 l-62 -25 -63 25 c-34
14 -80 35 -102 47 -22 12 -62 33 -90 47 -48 24 -161 100 -216 145 -14 12 -38
30 -54 41 -40 28 -165 146 -165 156 0 4 10 5 23 2 12 -3 36 -7 52 -10z m715
-699 c52 -14 102 -28 110 -31 8 -3 22 -7 30 -9 8 -1 38 -7 65 -13 143 -29 199
-33 435 -28 240 4 295 8 354 28 16 5 39 9 51 9 12 0 57 11 101 24 43 13 95 27
114 30 l34 6 -34 -37 c-19 -20 -39 -42 -45 -48 -19 -20 -160 -132 -210 -167
-67 -46 -185 -115 -265 -154 -144 -70 -412 -155 -530 -169 -238 -28 -325 -31
-478 -15 -269 28 -451 79 -702 198 -88 41 -278 164 -335 216 -22 20 -51 44
-65 53 -14 9 -47 41 -75 71 l-50 54 31 -5 c17 -3 68 -16 115 -30 46 -14 98
-28 114 -30 17 -2 37 -6 45 -10 36 -14 173 -21 405 -21 239 1 348 8 370 24 6
4 28 10 50 13 22 3 67 13 100 22 33 9 77 20 98 25 21 4 41 10 44 14 10 10 22
8 123 -20z"/>
<path d="M3435 3242 c-78 -18 -185 -63 -235 -99 -14 -10 -59 -52 -101 -93 -60
-60 -84 -92 -116 -160 -67 -140 -85 -209 -85 -330 0 -109 17 -180 65 -280 53
-110 83 -153 154 -221 60 -58 179 -139 205 -139 8 0 18 -4 24 -8 5 -5 53 -17
107 -27 109 -20 275 -17 302 5 12 10 15 38 15 138 l0 125 -57 -9 c-156 -22
-253 -5 -351 63 -83 59 -161 164 -179 243 -14 61 -14 161 1 217 35 138 104
224 230 287 75 38 84 40 171 40 53 0 105 -6 123 -13 57 -24 62 -15 62 113 0
156 -1 157 -145 162 -81 3 -131 -1 -190 -14z"/>
<path d="M6288 3229 c-17 -9 -18 -51 -18 -644 0 -374 4 -644 9 -659 9 -23 15
-25 93 -28 46 -2 101 -1 123 2 l40 5 5 527 c3 289 7 529 10 532 15 14 175 25
252 16 74 -8 86 -12 108 -39 14 -16 32 -45 41 -63 110 -222 141 -285 175 -348
13 -25 51 -100 85 -167 l60 -121 -22 -49 c-12 -26 -44 -95 -71 -152 -27 -57
-48 -111 -46 -120 3 -14 21 -16 141 -16 137 0 138 0 152 25 31 59 65 133 65
142 0 6 13 37 29 68 17 32 45 96 64 142 19 45 55 126 80 178 24 52 50 111 57
130 13 33 35 84 102 230 56 123 63 135 88 147 31 16 176 17 219 2 l31 -11 0
-517 c0 -389 3 -520 12 -529 8 -8 50 -12 123 -12 109 0 112 1 123 24 8 18 9
167 5 524 l-6 499 26 18 c28 18 130 23 247 12 30 -3 67 -6 82 -6 l28 -1 2
-532 3 -533 124 -3 c136 -3 155 3 180 54 18 36 187 304 252 401 27 39 49 74
49 77 0 6 63 106 83 131 4 6 29 44 56 85 87 135 81 157 81 -304 0 -268 4 -414
11 -427 9 -18 20 -20 125 -18 108 1 114 2 119 23 3 11 6 308 8 658 l2 637 -21
10 c-22 10 -189 13 -223 4 -11 -3 -35 -28 -53 -57 -18 -28 -55 -87 -84 -131
-48 -76 -330 -521 -388 -614 -16 -25 -31 -40 -37 -34 -5 5 -9 191 -9 416 -1
390 -2 407 -20 417 -13 7 -244 10 -671 10 l-651 -1 -20 -22 c-10 -12 -46 -85
-79 -162 -33 -77 -81 -187 -105 -245 -25 -58 -59 -134 -76 -170 -28 -61 -31
-63 -45 -45 -8 11 -82 156 -164 323 -121 243 -156 305 -175 313 -35 13 -764
11 -786 -2z"/>
<path d="M5625 3223 c-191 -22 -350 -110 -432 -236 -79 -124 -107 -211 -125
-390 -20 -202 12 -385 89 -506 44 -70 77 -106 128 -139 96 -63 148 -77 295
-76 116 0 155 4 200 22 14 5 29 10 33 10 4 1 29 11 54 24 77 38 191 153 194
195 0 5 6 15 13 23 31 36 71 240 57 286 -5 16 -12 53 -16 83 -24 211 -222 371
-457 371 -101 0 -218 -32 -264 -72 -11 -10 -24 -18 -29 -18 -5 0 -17 -8 -28
-17 -17 -15 -16 -11 6 33 27 54 82 108 126 126 116 46 116 46 328 48 113 0
210 3 215 6 4 3 8 52 8 110 0 103 0 105 -26 114 -23 9 -300 12 -369 3z m89
-592 c107 -48 146 -112 146 -239 0 -97 -15 -144 -60 -190 -71 -74 -177 -99
-283 -68 -90 26 -144 87 -172 194 -15 60 -15 66 4 130 27 87 69 137 145 173
81 37 138 38 220 0z"/>
<path d="M3956 2894 c-8 -20 -8 -942 0 -971 6 -22 10 -23 130 -23 l123 0 41
55 c22 30 40 56 40 59 0 2 34 53 76 113 42 59 110 158 150 220 75 112 90 130
101 119 4 -4 6 -124 4 -267 -1 -143 1 -269 4 -280 6 -17 17 -19 126 -19 87 0
121 3 124 13 6 16 12 931 7 969 l-4 28 -115 0 c-63 0 -123 -4 -133 -10 -10 -5
-41 -45 -69 -89 -28 -44 -58 -84 -67 -89 -9 -5 -14 -11 -12 -13 6 -8 -232
-362 -253 -375 -5 -3 -9 114 -9 260 0 148 -4 276 -10 290 -9 26 -10 26 -129
26 -99 0 -120 -3 -125 -16z"/>
</g>
</svg>
